<svg width="0" height="0" fill="none" style="visibility: hidden; position: absolute;" aria-hidden="true">
    <symbol id="arrow" class="sign-up-arrow arrow" width="68px" height="23px" viewBox="0 0 68 23" xmlns="http://www.w3.org/2000/svg">
        <g id="Page-1__arrow" stroke="none" stroke-width="1" fill="none" fill-rule="evenodd" stroke-linecap="round" stroke-linejoin="round">
            <g id="01-landing-main__arrow" transform="translate(-974.000000, -651.000000)" stroke="#001E41" stroke-width="1.5">
                <g id="main__arrow" transform="translate(79.000000, 148.000000)">
                    <g id="cta__arrow" transform="translate(401.000000, 385.000000)">
                        <g id="form__arrow" transform="translate(0.000000, 79.000000)">
                            <g id="attention__arrow" transform="translate(494.794031, 0.265424)">
                                <path d="M16.7103675,39.9123111 C11.892165,45.8184494 6.32204251,51.3100855 -1.13686838e-13,56.3872193 C6.13273516,56.5762845 12.8263003,57.9116791 20.0806954,60.3934032 M0.634976523,56.6805278 C24.1630599,45.204221 40.8756124,41.7345756 65.6349765,44.145234" id="arrowLPath__arrow" style="stroke-dashoffset: 0; stroke-dasharray: none; transform-origin: 0px 0px;" data-svg-origin="65.63497924804676 50.15285682678223" transform="matrix(1,0,0,1,0,0)"></path>
                            </g>
                        </g>
                    </g>
                </g>
            </g>
        </g>
    </symbol>
    <symbol id="click" width="62px" height="32px" viewBox="0 0 62 32" xmlns="http://www.w3.org/2000/svg">
        <g id="Page-1__click" stroke="none" stroke-width="1" fill="none" fill-rule="evenodd">
            <g id="01-landing-main__click" transform="translate(-1033.000000, -611.000000)" fill="#000000" fill-rule="nonzero">
                <g id="main__click" transform="translate(79.000000, 148.000000)">
                    <g id="cta__click" transform="translate(401.000000, 385.000000)">
                        <g id="form__click" transform="translate(0.000000, 77.000000)">
                            <g id="attention__click" transform="translate(494.794031, 0.265424)">
                                <path d="M62.3968011,27.5256802 C62.9968011,27.5256802 63.6218011,27.4506802 64.2718011,27.3006802 C64.9218011,27.1506802 65.5568011,26.9506802 66.1768011,26.7006802 C66.7968011,26.4506802 67.3968011,26.1606802 67.9768011,25.8306802 C68.5568011,25.5006802 69.0768011,25.1456802 69.5368011,24.7656802 C70.0568011,24.3456802 70.6318011,23.8356802 71.2618011,23.2356802 C71.8918011,22.6356802 72.4568011,22.0456802 72.9568011,21.4656802 C73.0568011,21.3456802 73.1068011,21.1956802 73.1068011,21.0156802 C73.1068011,20.8356802 73.0468011,20.6756802 72.9268011,20.5356802 C72.8068011,20.3956802 72.6568011,20.3256802 72.4768011,20.3256802 C72.2768011,20.3256802 72.1168011,20.4056802 71.9968011,20.5656802 C71.6968011,20.8856802 71.3668011,21.2306802 71.0068011,21.6006802 C70.6468011,21.9706802 70.3268011,22.2956802 70.0468011,22.5756802 C69.5668011,23.0356802 69.0118011,23.4856802 68.3818011,23.9256802 C67.7518011,24.3656802 67.0918011,24.7556802 66.4018011,25.0956802 C65.7118011,25.4356802 65.0168011,25.7106802 64.3168011,25.9206802 C63.6168011,26.1306802 62.9568011,26.2356802 62.3368011,26.2356802 C61.8768011,26.2356802 61.4468011,26.1706802 61.0468011,26.0406802 C60.6468011,25.9106802 60.2968011,25.6906802 59.9968011,25.3806802 C59.6968011,25.0706802 59.4618011,24.6606802 59.2918011,24.1506802 C59.1218011,23.6406802 59.0368011,23.0156802 59.0368011,22.2756802 C59.0368011,20.9756802 59.2118011,19.7356802 59.5618011,18.5556802 C59.9118011,17.3756802 60.3768011,16.2806802 60.9568011,15.2706802 C61.5368011,14.2606802 62.1968011,13.3456802 62.9368011,12.5256802 C63.6768011,11.7056802 64.4318011,11.0106802 65.2018011,10.4406802 C65.9718011,9.87068021 66.7218011,9.43068021 67.4518011,9.12068021 C68.1818011,8.81068021 68.8368011,8.65568021 69.4168011,8.65568021 C69.9768011,8.65568021 70.4268011,8.81568021 70.7668011,9.13568021 C71.1068011,9.45568021 71.2768011,9.97568021 71.2768011,10.6956802 C71.2768011,11.2356802 71.1868011,11.7456802 71.0068011,12.2256802 C70.8268011,12.7056802 70.5968011,13.1706802 70.3168011,13.6206802 C70.0368011,14.0706802 69.7268011,14.5056802 69.3868011,14.9256802 C69.0468011,15.3456802 68.7168011,15.7456802 68.3968011,16.1256802 C68.2968011,16.2656802 68.2468011,16.4056802 68.2468011,16.5456802 C68.2468011,16.7456802 68.3168011,16.9106802 68.4568011,17.0406802 C68.5968011,17.1706802 68.7568011,17.2356802 68.9368011,17.2356802 C69.1368011,17.2356802 69.3168011,17.1456802 69.4768011,16.9656802 C69.8368011,16.5056802 70.2068011,16.0406802 70.5868011,15.5706802 C70.9668011,15.1006802 71.3068011,14.6106802 71.6068011,14.1006802 C71.9068011,13.5906802 72.1518011,13.0556802 72.3418011,12.4956802 C72.5318011,11.9356802 72.6268011,11.3356802 72.6268011,10.6956802 C72.6268011,9.55568021 72.3368011,8.71568021 71.7568011,8.17568021 C71.1768011,7.63568021 70.4368011,7.36568021 69.5368011,7.36568021 C68.8168011,7.36568021 68.0218011,7.53068021 67.1518011,7.86068021 C66.2818011,8.19068021 65.4068011,8.66568021 64.5268011,9.28568021 C63.6468011,9.90568021 62.7968011,10.6606802 61.9768011,11.5506802 C61.1568011,12.4406802 60.4268011,13.4356802 59.7868011,14.5356802 C59.1468011,15.6356802 58.6368011,16.8356802 58.2568011,18.1356802 C57.8768011,19.4356802 57.6868011,20.8156802 57.6868011,22.2756802 C57.6868011,23.2356802 57.8118011,24.0506802 58.0618011,24.7206802 C58.3118011,25.3906802 58.6518011,25.9306802 59.0818011,26.3406802 C59.5118011,26.7506802 60.0118011,27.0506802 60.5818011,27.2406802 C61.1518011,27.4306802 61.7568011,27.5256802 62.3968011,27.5256802 Z M74.5768011,26.8056802 C74.9568011,26.8056802 75.3418011,26.7106802 75.7318011,26.5206802 C76.1218011,26.3306802 76.5168011,26.0956802 76.9168011,25.8156802 C77.6168011,25.2556802 78.2818011,24.6456802 78.9118011,23.9856802 C79.5418011,23.3256802 80.1568011,22.6656802 80.7568011,22.0056802 L81.3268011,21.4356802 L81.3268011,21.4356802 C81.4268011,21.3356802 81.4768011,21.2056802 81.4768011,21.0456802 C81.4768011,20.8656802 81.4068011,20.7056802 81.2668011,20.5656802 C81.1268011,20.4256802 80.9668011,20.3556802 80.7868011,20.3556802 C80.6268011,20.3556802 80.4768011,20.4256802 80.3368011,20.5656802 C80.2368011,20.6656802 80.1418011,20.7556802 80.0518011,20.8356802 C79.9618011,20.9156802 79.8768011,21.0056802 79.7968011,21.1056802 C79.5768011,21.3256802 79.2418011,21.6756802 78.7918011,22.1556802 C78.3418011,22.6356802 77.8618011,23.1156802 77.3518011,23.5956802 C76.8418011,24.0756802 76.3418011,24.5006802 75.8518011,24.8706802 C75.3618011,25.2406802 74.9668011,25.4256802 74.6668011,25.4256802 C74.4668011,25.4256802 74.2868011,25.3006802 74.1268011,25.0506802 C73.9668011,24.8006802 73.8868011,24.2956802 73.8868011,23.5356802 C73.8868011,22.9556802 73.9218011,22.3756802 73.9918011,21.7956802 C74.0618011,21.2156802 74.1568011,20.6456802 74.2768011,20.0856802 C74.7568011,19.5456802 75.2268011,19.0056802 75.6868011,18.4656802 C76.1468011,17.9256802 76.6068011,17.3756802 77.0668011,16.8156802 C77.4868011,16.2756802 77.9318011,15.7356802 78.4018011,15.1956802 C78.8718011,14.6556802 79.3218011,14.0956802 79.7518011,13.5156802 C80.1818011,12.9356802 80.5718011,12.3356802 80.9218011,11.7156802 C81.2718011,11.0956802 81.5368011,10.4456802 81.7168011,9.76568021 C81.7768011,9.48568021 81.8268011,9.23068021 81.8668011,9.00068021 C81.9068011,8.77068021 81.9268011,8.54568021 81.9268011,8.32568021 C81.9268011,7.80568021 81.8168011,7.38568021 81.5968011,7.06568021 C81.3768011,6.74568021 81.0568011,6.58568021 80.6368011,6.58568021 C80.2368011,6.58568021 79.8368011,6.72568021 79.4368011,7.00568021 C79.0368011,7.28568021 78.6618011,7.61568021 78.3118011,7.99568021 C77.9618011,8.37568021 77.6468011,8.77568021 77.3668011,9.19568021 C77.0868011,9.61568021 76.8668011,9.95568021 76.7068011,10.2156802 C76.3468011,10.8356802 75.9918011,11.5056802 75.6418011,12.2256802 C75.2918011,12.9456802 74.9568011,13.7006802 74.6368011,14.4906802 C74.3168011,15.2806802 74.0218011,16.0906802 73.7518011,16.9206802 C73.4818011,17.7506802 73.2568011,18.5656802 73.0768011,19.3656802 C72.4368011,20.1256802 71.7768011,20.8456802 71.0968011,21.5256802 C70.9368011,21.6456802 70.8568011,21.8056802 70.8568011,22.0056802 C70.8568011,22.1856802 70.9218011,22.3506802 71.0518011,22.5006802 C71.1818011,22.6506802 71.3468011,22.7256802 71.5468011,22.7256802 C71.6468011,22.7256802 71.7318011,22.7006802 71.8018011,22.6506802 C71.8718011,22.6006802 71.9368011,22.5456802 71.9968011,22.4856802 L72.6568011,21.8256802 C72.6168011,22.1256802 72.5918011,22.4156802 72.5818011,22.6956802 C72.5718011,22.9756802 72.5668011,23.2556802 72.5668011,23.5356802 C72.5668011,24.6556802 72.7468011,25.4806802 73.1068011,26.0106802 C73.4668011,26.5406802 73.9568011,26.8056802 74.5768011,26.8056802 Z M75.1168011,17.1456802 C75.3368011,16.5256802 75.6018011,15.8256802 75.9118011,15.0456802 C76.2218011,14.2656802 76.5568011,13.4906802 76.9168011,12.7206802 C77.2768011,11.9506802 77.6668011,11.2206802 78.0868011,10.5306802 C78.5068011,9.84068021 78.9268011,9.26568021 79.3468011,8.80568021 C79.8868011,8.20568021 80.2668011,7.90568021 80.4868011,7.90568021 C80.5468011,7.90568021 80.5768011,7.94568021 80.5768011,8.02568021 L80.5768011,8.26568021 L80.5768011,8.26568021 C80.5768011,8.58568021 80.5318011,8.92568021 80.4418011,9.28568021 C80.3518011,9.64568021 80.2318011,9.99568021 80.0818011,10.3356802 C79.9318011,10.6756802 79.7668011,11.0106802 79.5868011,11.3406802 C79.4068011,11.6706802 79.2168011,11.9656802 79.0168011,12.2256802 C78.4968011,12.9256802 77.8968011,13.7056802 77.2168011,14.5656802 C76.5368011,15.4256802 75.8368011,16.2856802 75.1168011,17.1456802 Z M86.3368011,13.7256802 C86.6568011,13.7256802 86.9518011,13.6006802 87.2218011,13.3506802 C87.4918011,13.1006802 87.6268011,12.8356802 87.6268011,12.5556802 C87.6268011,12.3756802 87.5568011,12.2156802 87.4168011,12.0756802 C87.2768011,11.9356802 87.1168011,11.8656802 86.9368011,11.8656802 C86.6568011,11.8656802 86.3718011,11.9906802 86.0818011,12.2406802 C85.7918011,12.4906802 85.6468011,12.7556802 85.6468011,13.0356802 C85.6468011,13.2156802 85.7168011,13.3756802 85.8568011,13.5156802 C85.9968011,13.6556802 86.1568011,13.7256802 86.3368011,13.7256802 Z M83.1868011,26.0256802 C83.8068011,26.0256802 84.4318011,25.8656802 85.0618011,25.5456802 C85.6918011,25.2256802 86.2918011,24.8356802 86.8618011,24.3756802 C87.4318011,23.9156802 87.9618011,23.4206802 88.4518011,22.8906802 C88.9418011,22.3606802 89.3668011,21.8956802 89.7268011,21.4956802 C89.7868011,21.4156802 89.8418011,21.3406802 89.8918011,21.2706802 C89.9418011,21.2006802 89.9668011,21.1256802 89.9668011,21.0456802 C89.9668011,20.8656802 89.8968011,20.7056802 89.7568011,20.5656802 C89.6168011,20.4256802 89.4568011,20.3556802 89.2768011,20.3556802 C89.1168011,20.3556802 88.9468011,20.4456802 88.7668011,20.6256802 C88.5268011,20.9256802 88.1818011,21.3106802 87.7318011,21.7806802 C87.2818011,22.2506802 86.7968011,22.7056802 86.2768011,23.1456802 C85.7568011,23.5856802 85.2418011,23.9656802 84.7318011,24.2856802 C84.2218011,24.6056802 83.7868011,24.7656802 83.4268011,24.7656802 C83.3068011,24.7656802 83.2068011,24.7306802 83.1268011,24.6606802 C83.0468011,24.5906802 83.0068011,24.4256802 83.0068011,24.1656802 C83.0068011,23.9456802 83.0618011,23.6806802 83.1718011,23.3706802 C83.2818011,23.0606802 83.4268011,22.7056802 83.6068011,22.3056802 C83.6668011,22.1856802 83.8018011,21.9106802 84.0118011,21.4806802 C84.2218011,21.0506802 84.4418011,20.5856802 84.6718011,20.0856802 C84.9018011,19.5856802 85.1018011,19.1106802 85.2718011,18.6606802 C85.4418011,18.2106802 85.5268011,17.9056802 85.5268011,17.7456802 C85.5268011,17.5056802 85.4668011,17.3256802 85.3468011,17.2056802 C85.2268011,17.0856802 85.0768011,17.0256802 84.8968011,17.0256802 C84.4968011,17.0256802 84.0518011,17.1906802 83.5618011,17.5206802 C83.0718011,17.8506802 82.5868011,18.2406802 82.1068011,18.6906802 C81.6268011,19.1406802 81.1718011,19.6006802 80.7418011,20.0706802 C80.3118011,20.5406802 79.9668011,20.9156802 79.7068011,21.1956802 C79.6468011,21.2556802 79.5968011,21.3106802 79.5568011,21.3606802 C79.5168011,21.4106802 79.4968011,21.4856802 79.4968011,21.5856802 C79.4968011,21.7656802 79.5718011,21.9206802 79.7218011,22.0506802 C79.8718011,22.1806802 80.0368011,22.2456802 80.2168011,22.2456802 C80.4368011,22.2456802 80.6168011,22.1556802 80.7568011,21.9756802 C81.0768011,21.6556802 81.4468011,21.2706802 81.8668011,20.8206802 C82.2868011,20.3706802 82.7168011,19.9256802 83.1568011,19.4856802 C83.2968011,19.3656802 83.4168011,19.2556802 83.5168011,19.1556802 C83.6168011,19.0556802 83.7168011,18.9656802 83.8168011,18.8856802 C83.7768011,18.9656802 83.7368011,19.0406802 83.6968011,19.1106802 C83.6568011,19.1806802 83.6168011,19.2556802 83.5768011,19.3356802 C83.4368011,19.6356802 83.2568011,20.0006802 83.0368011,20.4306802 C82.8168011,20.8606802 82.6068011,21.3006802 82.4068011,21.7506802 C82.2068011,22.2006802 82.0318011,22.6456802 81.8818011,23.0856802 C81.7318011,23.5256802 81.6568011,23.9056802 81.6568011,24.2256802 C81.6568011,24.8456802 81.8018011,25.3006802 82.0918011,25.5906802 C82.3818011,25.8806802 82.7468011,26.0256802 83.1868011,26.0256802 Z M91.5868011,26.6856802 C92.4068011,26.6856802 93.1668011,26.5456802 93.8668011,26.2656802 C94.5668011,25.9856802 95.2268011,25.6356802 95.8468011,25.2156802 C96.5668011,24.7156802 97.2218011,24.1706802 97.8118011,23.5806802 C98.4018011,22.9906802 98.9968011,22.3856802 99.5968011,21.7656802 C99.7368011,21.6456802 99.8068011,21.4956802 99.8068011,21.3156802 C99.8068011,21.1156802 99.7368011,20.9506802 99.5968011,20.8206802 C99.4568011,20.6906802 99.2968011,20.6256802 99.1168011,20.6256802 C98.9368011,20.6256802 98.7768011,20.6956802 98.6368011,20.8356802 C98.1768011,21.2956802 97.6918011,21.7856802 97.1818011,22.3056802 C96.6718011,22.8256802 96.1318011,23.3106802 95.5618011,23.7606802 C94.9918011,24.2106802 94.3918011,24.5856802 93.7618011,24.8856802 C93.1318011,25.1856802 92.4668011,25.3356802 91.7668011,25.3356802 C91.1868011,25.3356802 90.7368011,25.0956802 90.4168011,24.6156802 C90.0968011,24.1356802 89.9368011,23.5356802 89.9368011,22.8156802 C89.9368011,22.1156802 90.0618011,21.4606802 90.3118011,20.8506802 C90.5618011,20.2406802 90.8718011,19.7156802 91.2418011,19.2756802 C91.6118011,18.8356802 92.0118011,18.4906802 92.4418011,18.2406802 C92.8718011,17.9906802 93.2768011,17.8656802 93.6568011,17.8656802 C94.0168011,17.8656802 94.2768011,17.9556802 94.4368011,18.1356802 C94.5968011,18.3156802 94.7268011,18.5156802 94.8268011,18.7356802 C94.9268011,18.9556802 95.0268011,19.1556802 95.1268011,19.3356802 C95.2268011,19.5156802 95.3968011,19.6056802 95.6368011,19.6056802 C95.7968011,19.6056802 95.9518011,19.5506802 96.1018011,19.4406802 C96.2518011,19.3306802 96.3268011,19.1656802 96.3268011,18.9456802 C96.3268011,18.9056802 96.3218011,18.8706802 96.3118011,18.8406802 C96.3018011,18.8106802 96.2968011,18.7756802 96.2968011,18.7356802 C96.0968011,17.9756802 95.7618011,17.4156802 95.2918011,17.0556802 C94.8218011,16.6956802 94.2868011,16.5156802 93.6868011,16.5156802 C93.1068011,16.5156802 92.5118011,16.6706802 91.9018011,16.9806802 C91.2918011,17.2906802 90.7418011,17.7306802 90.2518011,18.3006802 C89.7618011,18.8706802 89.3568011,19.5456802 89.0368011,20.3256802 C88.7168011,21.1056802 88.5568011,21.9556802 88.5568011,22.8756802 C88.5568011,23.3756802 88.6218011,23.8556802 88.7518011,24.3156802 C88.8818011,24.7756802 89.0718011,25.1806802 89.3218011,25.5306802 C89.5718011,25.8806802 89.8868011,26.1606802 90.2668011,26.3706802 C90.6468011,26.5806802 91.0868011,26.6856802 91.5868011,26.6856802 Z M107.546801,26.5056802 C107.726801,26.5056802 107.901801,26.4806802 108.071801,26.4306802 C108.241801,26.3806802 108.396801,26.3256802 108.536801,26.2656802 C109.156801,26.0456802 109.731801,25.7556802 110.261801,25.3956802 C110.791801,25.0356802 111.291801,24.6406802 111.761801,24.2106802 C112.231801,23.7806802 112.686801,23.3256802 113.126801,22.8456802 C113.566801,22.3656802 114.006801,21.8956802 114.446801,21.4356802 C114.546801,21.3356802 114.596801,21.1956802 114.596801,21.0156802 C114.596801,20.8556802 114.551801,20.6956802 114.461801,20.5356802 C114.371801,20.3756802 114.216801,20.2956802 113.996801,20.2956802 C113.816801,20.2956802 113.646801,20.3756802 113.486801,20.5356802 C113.146801,20.8756802 112.766801,21.2706802 112.346801,21.7206802 C111.926801,22.1706802 111.486801,22.6106802 111.026801,23.0406802 C110.566801,23.4706802 110.096801,23.8706802 109.616801,24.2406802 C109.136801,24.6106802 108.686801,24.8756802 108.266801,25.0356802 C108.226801,25.0556802 108.166801,25.0806802 108.086801,25.1106802 C108.006801,25.1406802 107.946801,25.1556802 107.906801,25.1556802 C107.866801,25.1556802 107.826801,25.1056802 107.786801,25.0056802 C107.686801,24.7856802 107.596801,24.5406802 107.516801,24.2706802 C107.436801,24.0006802 107.351801,23.7306802 107.261801,23.4606802 C107.171801,23.1906802 107.056801,22.9406802 106.916801,22.7106802 C106.776801,22.4806802 106.606801,22.2956802 106.406801,22.1556802 C106.806801,21.9356802 107.221801,21.6756802 107.651801,21.3756802 C108.081801,21.0756802 108.471801,20.7406802 108.821801,20.3706802 C109.171801,20.0006802 109.461801,19.5806802 109.691801,19.1106802 C109.921801,18.6406802 110.036801,18.1256802 110.036801,17.5656802 C110.036801,17.0456802 109.896801,16.6706802 109.616801,16.4406802 C109.336801,16.2106802 108.996801,16.0956802 108.596801,16.0956802 C108.216801,16.0956802 107.831801,16.1706802 107.441801,16.3206802 C107.051801,16.4706802 106.716801,16.6556802 106.436801,16.8756802 C105.616801,17.5156802 104.841801,18.2906802 104.111801,19.2006802 C103.381801,20.1106802 102.716801,21.0156802 102.116801,21.9156802 C102.296801,21.2756802 102.476801,20.6206802 102.656801,19.9506802 C102.836801,19.2806802 103.006801,18.6556802 103.166801,18.0756802 C103.186801,17.9956802 103.206801,17.9106802 103.226801,17.8206802 C103.246801,17.7306802 103.266801,17.6356802 103.286801,17.5356802 C103.746801,16.8756802 104.201801,16.1706802 104.651801,15.4206802 C105.101801,14.6706802 105.516801,13.9006802 105.896801,13.1106802 C106.276801,12.3206802 106.606801,11.5156802 106.886801,10.6956802 C107.166801,9.87568021 107.376801,9.06568021 107.516801,8.26568021 C107.516801,8.20568021 107.521801,8.14568021 107.531801,8.08568021 C107.541801,8.02568021 107.546801,7.97568021 107.546801,7.93568021 C107.546801,7.65568021 107.486801,7.45068021 107.366801,7.32068021 C107.246801,7.19068021 107.096801,7.12568021 106.916801,7.12568021 C106.736801,7.12568021 106.536801,7.20068021 106.316801,7.35068021 C106.096801,7.50068021 105.876801,7.73568021 105.656801,8.05568021 C105.416801,8.39568021 105.196801,8.76568021 104.996801,9.16568021 C104.796801,9.56568021 104.611801,9.95568021 104.441801,10.3356802 C104.271801,10.7156802 104.121801,11.0706802 103.991801,11.4006802 C103.861801,11.7306802 103.766801,11.9856802 103.706801,12.1656802 C103.426801,13.0456802 103.146801,13.8706802 102.866801,14.6406802 C102.586801,15.4106802 102.326801,16.2156802 102.086801,17.0556802 C101.806801,17.4756802 101.481801,17.8506802 101.111801,18.1806802 C100.741801,18.5106802 100.396801,18.8656802 100.076801,19.2456802 C99.8368011,19.5256802 99.5868011,19.8006802 99.3268011,20.0706802 C99.0668011,20.3406802 98.7968011,20.6256802 98.5168011,20.9256802 C98.3968011,21.0456802 98.3368011,21.1956802 98.3368011,21.3756802 C98.3368011,21.5356802 98.3968011,21.6956802 98.5168011,21.8556802 C98.6368011,22.0156802 98.7968011,22.0956802 98.9968011,22.0956802 C99.1568011,22.0956802 99.3168011,22.0156802 99.4768011,21.8556802 C100.096801,21.2356802 100.586801,20.7156802 100.946801,20.2956802 C100.986801,20.2356802 101.036801,20.1756802 101.096801,20.1156802 C101.156801,20.0556802 101.216801,19.9956802 101.276801,19.9356802 C101.236801,20.0956802 101.131801,20.4506802 100.961801,21.0006802 C100.791801,21.5506802 100.616801,22.1356802 100.436801,22.7556802 C100.256801,23.3756802 100.091801,23.9556802 99.9418011,24.4956802 C99.7918011,25.0356802 99.7168011,25.3756802 99.7168011,25.5156802 C99.7168011,25.6956802 99.7668011,25.8606802 99.8668011,26.0106802 C99.9668011,26.1606802 100.106801,26.2356802 100.286801,26.2356802 C100.526801,26.2356802 100.726801,26.1056802 100.886801,25.8456802 C101.146801,25.4456802 101.381801,25.0956802 101.591801,24.7956802 C101.801801,24.4956802 102.001801,24.2156802 102.191801,23.9556802 C102.381801,23.6956802 102.566801,23.4406802 102.746801,23.1906802 C102.926801,22.9406802 103.116801,22.6656802 103.316801,22.3656802 C103.476801,22.1256802 103.731801,21.7656802 104.081801,21.2856802 C104.431801,20.8056802 104.826801,20.3156802 105.266801,19.8156802 C105.706801,19.3156802 106.166801,18.8506802 106.646801,18.4206802 C107.126801,17.9906802 107.576801,17.6956802 107.996801,17.5356802 C108.156801,17.4556802 108.306801,17.4156802 108.446801,17.4156802 C108.506801,17.4156802 108.556801,17.4306802 108.596801,17.4606802 C108.636801,17.4906802 108.656801,17.5856802 108.656801,17.7456802 C108.656801,18.2856802 108.526801,18.7606802 108.266801,19.1706802 C108.006801,19.5806802 107.671801,19.9406802 107.261801,20.2506802 C106.851801,20.5606802 106.401801,20.8356802 105.911801,21.0756802 C105.421801,21.3156802 104.946801,21.5256802 104.486801,21.7056802 C104.346801,21.7656802 104.226801,21.8556802 104.126801,21.9756802 C104.026801,22.0956802 103.976801,22.2356802 103.976801,22.3956802 C103.976801,22.6356802 104.106801,22.8056802 104.366801,22.9056802 C104.526801,22.9656802 104.686801,22.9956802 104.846801,22.9956802 C105.006801,22.9956802 105.156801,23.0256802 105.296801,23.0856802 C105.596801,23.2256802 105.796801,23.4806802 105.896801,23.8506802 C105.996801,24.2206802 106.091801,24.6006802 106.181801,24.9906802 C106.271801,25.3806802 106.406801,25.7306802 106.586801,26.0406802 C106.766801,26.3506802 107.086801,26.5056802 107.546801,26.5056802 Z M117.716801,21.3156802 C117.876801,21.3156802 118.016801,21.2656802 118.136801,21.1656802 C118.256801,21.0656802 118.336801,20.9156802 118.376801,20.7156802 C118.436801,20.3756802 118.556801,19.8556802 118.736801,19.1556802 C118.916801,18.4556802 119.131801,17.6656802 119.381801,16.7856802 C119.631801,15.9056802 119.901801,14.9906802 120.191801,14.0406802 C120.481801,13.0906802 120.761801,12.2056802 121.031801,11.3856802 C121.301801,10.5656802 121.541801,9.85068021 121.751801,9.24068021 C121.961801,8.63068021 122.126801,8.22568021 122.246801,8.02568021 C122.326801,7.94568021 122.366801,7.83568021 122.366801,7.69568021 C122.366801,7.47568021 122.291801,7.30568021 122.141801,7.18568021 C121.991801,7.06568021 121.836801,7.00568021 121.676801,7.00568021 C121.416801,7.00568021 121.226801,7.12568021 121.106801,7.36568021 C120.986801,7.56568021 120.806801,8.00568021 120.566801,8.68568021 C120.326801,9.36568021 120.051801,10.1706802 119.741801,11.1006802 C119.431801,12.0306802 119.116801,13.0206802 118.796801,14.0706802 C118.476801,15.1206802 118.186801,16.1056802 117.926801,17.0256802 C117.666801,17.9456802 117.451801,18.7356802 117.281801,19.3956802 C117.111801,20.0556802 117.026801,20.4656802 117.026801,20.6256802 C117.026801,20.8456802 117.101801,21.0156802 117.251801,21.1356802 C117.401801,21.2556802 117.556801,21.3156802 117.716801,21.3156802 Z M116.636801,25.8756802 C116.876801,25.8756802 117.111801,25.7756802 117.341801,25.5756802 C117.571801,25.3756802 117.686801,25.1056802 117.686801,24.7656802 C117.686801,24.5456802 117.616801,24.3456802 117.476801,24.1656802 C117.336801,23.9856802 117.156801,23.8956802 116.936801,23.8956802 C116.656801,23.8956802 116.431801,24.0406802 116.261801,24.3306802 C116.091801,24.6206802 116.006801,24.8856802 116.006801,25.1256802 C116.006801,25.4056802 116.071801,25.6006802 116.201801,25.7106802 C116.331801,25.8206802 116.476801,25.8756802 116.636801,25.8756802 Z" id="Click!__click" transform="translate(90.026801, 17.055680) rotate(-11.000000) translate(-90.026801, -17.055680) "></path>
                            </g>
                        </g>
                    </g>
                </g>
            </g>
        </g>
    </symbol>
    <symbol id="create" xmlns="http://www.w3.org/2000/svg" fill="none" viewBox="0 0 24 24" stroke-width="1.5" stroke="currentColor" class="w-6 h-6">
        <path stroke-linecap="round" stroke-linejoin="round" d="M12 4.5v15m7.5-7.5h-15"/>
    </symbol>
    <symbol id="facebook" xmlns="http://www.w3.org/2000/svg" fill="currentColor" width="100%" height="100%" viewBox="0 0 320 512">
        <path d="M279.14 288l14.22-92.66h-88.91v-60.13c0-25.35 12.42-50.06 52.24-50.06h40.42V6.26S260.43 0 225.36 0c-73.22 0-121.08 44.38-121.08 124.72v70.62H22.89V288h81.39v224h100.17V288z"></path>
    </symbol>
    <symbol id="linkedin" fill="currentColor" height="100%" width="100%" xmlns="http://www.w3.org/2000/svg" viewBox="0 0 310 310" xml:space="preserve">
        <g id="SVGRepo_bgCarrier__linkedin" stroke-width="0"></g>
        <g id="SVGRepo_tracerCarrier__linkedin" stroke-linecap="round" stroke-linejoin="round"></g>
        <g id="SVGRepo_iconCarrier__linkedin">
            <g id="XMLID_801___linkedin">
                <path id="XMLID_802___linkedin" d="M72.16,99.73H9.927c-2.762,0-5,2.239-5,5v199.928c0,2.762,2.238,5,5,5H72.16c2.762,0,5-2.238,5-5V104.73 C77.16,101.969,74.922,99.73,72.16,99.73z"></path>
                <path id="XMLID_803___linkedin" d="M41.066,0.341C18.422,0.341,0,18.743,0,41.362C0,63.991,18.422,82.4,41.066,82.4 c22.626,0,41.033-18.41,41.033-41.038C82.1,18.743,63.692,0.341,41.066,0.341z"></path>
                <path id="XMLID_804___linkedin" d="M230.454,94.761c-24.995,0-43.472,10.745-54.679,22.954V104.73c0-2.761-2.238-5-5-5h-59.599 c-2.762,0-5,2.239-5,5v199.928c0,2.762,2.238,5,5,5h62.097c2.762,0,5-2.238,5-5v-98.918c0-33.333,9.054-46.319,32.29-46.319 c25.306,0,27.317,20.818,27.317,48.034v97.204c0,2.762,2.238,5,5,5H305c2.762,0,5-2.238,5-5V194.995 C310,145.43,300.549,94.761,230.454,94.761z"></path>
            </g>
        </g>
    </symbol>
    <symbol id="telegram" fill="currentColor" height="100%" width="100%" xmlns="http://www.w3.org/2000/svg" viewBox="0 0 300 300" xml:space="preserve">
        <g id="SVGRepo_bgCarrier__telegram" stroke-width="0"></g>
        <g id="SVGRepo_tracerCarrier__telegram" stroke-linecap="round" stroke-linejoin="round"></g>
        <g id="SVGRepo_iconCarrier__telegram">
            <g id="XMLID_496___telegram">
                <path id="XMLID_497___telegram" d="M5.299,144.645l69.126,25.8l26.756,86.047c1.712,5.511,8.451,7.548,12.924,3.891l38.532-31.412 c4.039-3.291,9.792-3.455,14.013-0.391l69.498,50.457c4.785,3.478,11.564,0.856,12.764-4.926L299.823,29.22 c1.31-6.316-4.896-11.585-10.91-9.259L5.218,129.402C-1.783,132.102-1.722,142.014,5.299,144.645z M96.869,156.711l135.098-83.207 c2.428-1.491,4.926,1.792,2.841,3.726L123.313,180.87c-3.919,3.648-6.447,8.53-7.163,13.829l-3.798,28.146 c-0.503,3.758-5.782,4.131-6.819,0.494l-14.607-51.325C89.253,166.16,91.691,159.907,96.869,156.711z"></path>
            </g>
        </g>
    </symbol>
</svg>